<?xml version="1.0" encoding="UTF-8"?> <svg xmlns="http://www.w3.org/2000/svg" width="40" height="41" viewBox="0 0 40 41" fill="none"><mask id="mask0_952_2360" style="mask-type:alpha" maskUnits="userSpaceOnUse" x="0" y="0" width="40" height="41"><rect y="0.151855" width="40" height="40" fill="#D9D9D9"></rect></mask><g mask="url(#mask0_952_2360)"><path d="M6.91454 35.7678C4.81255 33.6658 3.5209 31.2645 3.0396 28.5638C2.55829 25.8631 2.88733 23.236 4.02672 20.6824L8.79969 9.89902C8.89774 9.68312 9.01559 9.47711 9.15324 9.28101C9.29089 9.08396 9.45777 8.88738 9.65387 8.69128C10.1842 8.16095 10.8618 7.89579 11.6868 7.89578C12.5118 7.89578 13.1894 8.16095 13.7197 8.69128C13.8376 8.80913 13.9458 8.92675 14.0443 9.04413C14.1428 9.16245 14.2312 9.30033 14.3095 9.45778L14.9579 10.5771C15.2327 11.0094 15.4045 11.4169 15.4734 11.7997C15.5422 12.1825 15.5276 12.6784 15.4295 13.2875L23.2077 5.5093C23.9341 4.78287 24.8178 4.41965 25.8586 4.41965C26.9 4.41918 27.7841 4.78239 28.511 5.5093C28.7071 5.7054 28.8638 5.91164 28.9812 6.12802C29.0995 6.34439 29.1882 6.5603 29.2471 6.77573L29.3942 6.62865C30.1409 5.96114 31.0101 5.6519 32.002 5.70093C32.9938 5.74995 33.8334 6.11812 34.5207 6.80543C35.1496 7.43428 35.5033 8.18075 35.5821 9.04483C35.6603 9.90939 35.4932 10.6851 35.0807 11.3719C35.2575 11.3922 35.4687 11.4855 35.7143 11.6519C35.9599 11.8193 36.1807 12.001 36.3769 12.1971C37.1429 12.9631 37.4964 13.8767 37.4375 14.9379C37.3786 15.9981 36.976 16.9013 36.2298 17.6475L35.2575 18.6198C35.4536 18.6594 35.6598 18.7478 35.8762 18.8849C36.0921 19.0226 36.2885 19.1798 36.4652 19.3566C37.2119 20.1033 37.5803 20.9921 37.5704 22.0231C37.5605 23.054 37.1921 23.933 36.4652 24.6599L25.358 35.7671C22.6866 38.4386 19.6128 39.7743 16.1366 39.7743C12.6595 39.7743 9.58552 38.4388 6.91454 35.7678ZM8.88878 33.7936C11.0101 35.9149 13.4357 36.9753 16.1656 36.9748C18.8955 36.9753 21.3115 35.9246 23.4135 33.8226L34.5207 22.7153C34.7173 22.5188 34.8106 22.2882 34.8007 22.0238C34.7908 21.7584 34.6876 21.5274 34.491 21.3308C34.2949 21.1347 34.0691 21.0367 33.8136 21.0367C33.5586 21.0362 33.3328 21.1342 33.1362 21.3308L26.949 27.518L24.6806 25.2496L34.4033 15.5269C34.5999 15.3303 34.6979 15.1045 34.6975 14.8495C34.6975 14.594 34.5992 14.3679 34.4026 14.1714C34.2065 13.9753 33.9807 13.8772 33.7252 13.8772C33.4702 13.8767 33.2444 13.9748 33.0478 14.1714L23.3251 23.8941L21.0567 21.6257L32.5472 10.1352C32.7437 9.93862 32.8418 9.71281 32.8413 9.45778C32.8413 9.20228 32.743 8.97624 32.5465 8.77967C32.3504 8.58356 32.1196 8.48056 31.8542 8.47066C31.5893 8.46029 31.3585 8.55339 31.1619 8.74997L19.6715 20.2405L17.4328 18.0018L26.5665 8.86806C26.7626 8.67195 26.8557 8.4412 26.8458 8.1758C26.8359 7.9104 26.7329 7.67965 26.5368 7.48354C26.3402 7.28697 26.1141 7.18868 25.8586 7.18868C25.6031 7.18868 25.3773 7.28673 25.1812 7.48283L12.7185 19.9456L10.8036 18.0307L12.5127 14.083C12.7875 13.4546 12.8559 12.9243 12.7178 12.492C12.5806 12.0597 12.3256 11.5195 11.9527 10.8713C11.8344 10.7143 11.7262 10.6358 11.6281 10.6358C11.5301 10.6358 11.4516 10.7242 11.3926 10.901L6.58998 21.8314C5.70657 23.8547 5.44164 25.927 5.79519 28.0483C6.14875 30.1696 7.17994 32.0847 8.88878 33.7936Z" fill="#1C1B1F"></path></g></svg> 