<?xml version="1.0" encoding="UTF-8"?> <svg xmlns="http://www.w3.org/2000/svg" width="321" height="321" viewBox="0 0 321 321" fill="none"><path d="M147.272 321H173.728L166.673 194.011L209.885 313.945L233.695 304.245L179.019 188.72L264.56 283.962L283.08 264.56L188.72 179.901L303.363 234.577L313.945 209.885L193.129 167.555L321 173.728V147.272L193.129 154.327L313.945 111.115L303.363 87.3049L188.72 141.981L283.08 56.4395L264.56 37.9203L179.019 132.28L233.695 17.6373L209.885 7.05493L166.673 126.989L173.728 0H147.272L153.445 127.871L111.115 7.05493L86.4231 17.6373L141.099 132.28L56.4396 37.9203L37.0385 56.4395L132.28 141.981L16.7555 87.3049L7.05494 111.115L126.989 154.327L0 147.272V173.728L126.989 167.555L7.05494 209.885L16.7555 234.577L132.28 179.901L37.0385 264.56L56.4396 283.962L141.099 188.72L86.4231 304.245L111.115 313.945L153.445 194.011L147.272 321Z" fill="#DCFC37"></path></svg> 